<svg xmlns="http://www.w3.org/2000/svg" width="593.4" height="532.4" viewBox="0 0 593.4 532.4"><style type="text/css">.st0{fill:#cee0f6;opacity:0.2}.st1{fill:none;stroke:#cee0f6;stroke-width:6;stroke-miterlimit:10;opacity:0.2}.st2{fill:none;stroke:#cee0f6;stroke-width:6;stroke-linecap:round;stroke-miterlimit:10;opacity:0.2}.st3{fill:none;stroke:#cee0f6;stroke-width:4;stroke-linecap:round;stroke-miterlimit:10;opacity:0.2}</style><path class="st0" d="M289.1 170.7c-11.4-11.4-30-11.4-41.4 0L71.3 347c-11.4 11.4-11.4 30 0 41.4s30 11.4 41.4 0l25.9-25.9L289 212.1c11.6-11.5 11.6-30 .1-41.4z"/><path class="st0" d="M503 286.2c-11.5-11.4-30-11.3-41.4.2l-25.8 26c1.2-1.2 2.2-2.4 3.1-3.7 3-4.2 4.7-9 5.2-13.8-.5 4.9-2.2 9.6-5.2 13.8-11.4 8.2-27.4 7.3-37.7-3-5.8-5.7-8.6-13.2-8.7-20.7 0-4.8 1.2-9.6 3.5-13.9l9.5-9.5c11.4-11.4 11.4-30 0-41.4-11.4-11.4-30-11.4-41.4 0l-82.5 82.5c-11.4 11.4-30 11.4-41.4 0-5.7-5.7-8.6-13.2-8.6-20.7s2.8-15 8.6-20.7L138.7 362.5c-1.2 1.2-2.2 2.4-3.1 3.7-3 4.2-4.7 8.9-5.2 13.8.5-4.9 2.3-9.6 5.3-13.8 11.4-8.2 27.4-7.1 37.7 3.1 5.7 5.7 8.6 13.2 8.6 20.7 0 6-1.8 11.9-5.4 17 1.3-.9 2.5-2 3.7-3.1l-78.4 78.4c-11.4 11.4-11.4 30 0 41.4 11.4 11.4 30 11.4 41.4 0l154.1-154.1c11.4-8 27.1-6.9 37.3 3.2 5.8 5.7 8.6 13.2 8.7 20.6 0 7.5-2.8 15-8.4 20.8l2.9-2.9-51.6 52.2c-11.4 11.5-11.3 30 .2 41.4 11.5 11.4 30 11.3 41.4-.2l175.5-177.3c11.2-11.3 11.1-29.9-.4-41.2z"/><circle class="st1" cx="569.9" cy="207.5" r="16.5"/><circle class="st1" cx="165.9" cy="72.5" r="9.5"/><path class="st0" d="M333.4 127.2l19.2-15.2 10.8 21.9-19.2 15.2z"/><path class="st0" d="M0 269l9.7-12 9.7 12-9.7 12z"/><path class="st2" d="M261.9 3l1.6 4.5M256.4 14.5l4.5-1.6M267.8 20l-1.5-4.5M273.4 8.6l-4.5 1.5M463.9 79.1l-6.7 14.6M433.4 90.6l14.6 6.6M444.8 121l6.6-14.6M475.3 109.6l-14.6-6.6M25.3 124l3.5 11.1M14.4 145l11.1-3.5M35.4 155.9l-3.5-11.1M46.2 134.9l-11 3.5"/><path class="st3" d="M168.7 155v7.4M159.8 158.3l4.7 5.6M155 166.5l7.3 1.3M156.7 175.9l6.3-3.7M163.9 182l2.6-6.9M173.5 182l-2.6-6.9M180.7 175.9l-6.3-3.7M182.4 166.5l-7.3 1.3M177.6 158.3l-4.7 5.6"/><path class="st2" d="M576.7 334v7.4M567.8 337.3l4.7 5.6M563 345.5l7.3 1.3M564.7 354.9l6.3-3.7M571.9 361l2.6-6.9M581.5 361l-2.6-6.9M588.7 354.9l-6.3-3.7M590.4 345.5l-7.3 1.3M585.6 337.3l-4.7 5.6"/></svg>